<?xml version="1.0" standalone="no"?>
<!DOCTYPE svg PUBLIC "-//W3C//DTD SVG 20010904//EN"
 "http://www.w3.org/TR/2001/REC-SVG-20010904/DTD/svg10.dtd">
<svg version="1.0" xmlns="http://www.w3.org/2000/svg"
 width="16.000000pt" height="16.000000pt" viewBox="0 0 16.000000 16.000000"
 preserveAspectRatio="xMidYMid meet">
<metadata>
Created by potrace 1.11, written by Peter Selinger 2001-2013
</metadata>
<g transform="translate(0.000000,16.000000) scale(0.005161,-0.005161)"
fill="#000000" stroke="none">
<path d="M460 3093 c-202 -35 -367 -179 -436 -383 -18 -52 -19 -106 -19 -1160
0 -1057 1 -1107 19 -1160 34 -99 68 -154 140 -226 72 -72 127 -106 226 -140
53 -18 103 -19 1160 -19 1057 0 1107 1 1160 19 99 34 154 68 226 140 72 72
106 127 140 226 18 53 19 103 19 1160 0 1054 -1 1108 -19 1160 -34 100 -77
168 -147 235 -71 66 -112 92 -209 129 -55 21 -59 21 -1145 22 -600 1 -1101 0
-1115 -3z m1491 -713 c211 -40 379 -221 404 -436 6 -53 -5 -157 -22 -200 -3
-9 1 -14 12 -14 36 0 143 -67 206 -130 240 -238 197 -620 -85 -758 -132 -65
-120 -64 -886 -64 -622 0 -702 2 -760 17 -201 52 -332 185 -362 369 -34 207
89 439 287 537 l71 35 -8 35 c-12 50 0 137 27 196 33 74 96 137 174 176 57 28
76 32 146 32 89 0 149 -18 210 -64 l38 -28 25 49 c13 26 50 74 82 106 120 120
281 172 441 142z"/>
<path d="M1479 1946 c-99 -26 -261 -183 -329 -318 -22 -44 -40 -86 -40 -93 0
-7 -14 -30 -31 -51 -94 -118 -93 -218 2 -282 18 -13 40 -35 48 -50 82 -159
296 -221 543 -158 147 37 253 98 370 212 57 55 58 58 37 66 -19 7 -29 2 -58
-26 l-34 -34 -71 48 c-119 80 -118 74 -23 150 123 98 207 236 193 313 -9 49
-45 98 -91 124 -57 32 -77 29 -114 -17 -26 -33 -30 -43 -21 -60 6 -11 21 -20
35 -20 13 0 35 -4 49 -10 36 -13 35 -62 -2 -121 -33 -52 -170 -181 -186 -176
-6 2 -11 27 -11 55 1 41 10 70 47 142 42 84 44 90 24 89 -13 0 -40 -24 -72
-62 -94 -116 -203 -177 -316 -180 -32 -1 -58 -3 -58 -4 0 -1 24 -8 53 -17 28
-8 67 -28 85 -43 36 -31 58 -86 39 -101 -32 -25 -222 -72 -293 -72 -31 0 -33
2 -40 48 -30 202 149 476 399 609 l37 21 -47 11 c-27 7 -55 14 -63 16 -8 2
-36 -2 -61 -9z m-395 -684 c0 -1 -12 6 -25 17 l-23 19 19 58 20 59 5 -75 c3
-41 5 -76 4 -78z m736 -3 c90 -29 152 -58 146 -68 -15 -23 -137 -107 -201
-137 -128 -62 -242 -64 -365 -8 -48 22 -140 97 -140 114 0 4 44 11 98 18 53 6
116 18 140 26 51 18 52 14 22 -84 -24 -79 -24 -75 -2 -77 12 -1 30 23 62 83
25 50 62 102 87 125 47 43 47 43 153 8z"/>
<path d="M1485 1685 c-32 -31 -32 -69 1 -102 21 -21 32 -24 62 -20 40 7 82 46
82 76 0 10 -9 30 -21 45 -28 36 -89 37 -124 1z"/>
</g>
</svg>
